<svg width="40" height="40" viewBox="0 0 40 40" fill="none" xmlns="http://www.w3.org/2000/svg">
<circle cx="20" cy="20" r="20" fill="#59CDFF"/>
<path d="M23.8293 24C23.4175 25.1652 22.3062 26 21 26C19.6938 26 18.5825 25.1652 18.1707 24H11C10.4477 24 10 23.5523 10 23C10 22.4477 10.4477 22 11 22H18.1707C18.5825 20.8348 19.6938 20 21 20C22.3062 20 23.4175 20.8348 23.8293 22H29C29.5523 22 30 22.4477 30 23C30 23.5523 29.5523 24 29 24H23.8293ZM17.8293 17C17.4175 18.1652 16.3062 19 15 19C13.6938 19 12.5825 18.1652 12.1707 17H11C10.4477 17 10 16.5523 10 16C10 15.4477 10.4477 15 11 15H12.1707C12.5825 13.8348 13.6938 13 15 13C16.3062 13 17.4175 13.8348 17.8293 15H29C29.5523 15 30 15.4477 30 16C30 16.5523 29.5523 17 29 17H17.8293ZM15 17C15.5523 17 16 16.5523 16 16C16 15.4477 15.5523 15 15 15C14.4477 15 14 15.4477 14 16C14 16.5523 14.4477 17 15 17ZM21 24C21.5523 24 22 23.5523 22 23C22 22.4477 21.5523 22 21 22C20.4477 22 20 22.4477 20 23C20 23.5523 20.4477 24 21 24Z" fill="white"/>
</svg>
