<svg width="24" height="24" viewBox="0 0 24 24" fill="none" xmlns="http://www.w3.org/2000/svg">
<g clip-path="url(#clip0_150_8)">
<path d="M4.32675 7.53387L8.15587 8.92812C9.4755 5.87037 11.3887 3.51724 13.3684 2.41437C9.77287 2.23099 6.28912 3.80037 4.0485 6.60687C3.79762 6.92187 3.94875 7.39624 4.32675 7.53387ZM9.28612 9.33987L18.2291 12.596C19.5701 8.04424 18.9304 3.90874 16.6305 3.07174C16.353 2.97049 16.0631 2.92174 15.7646 2.92174C13.5889 2.92212 10.9545 5.51562 9.28612 9.33987ZM19.5555 4.66887C19.7887 5.28012 19.9616 5.96637 20.0505 6.73849C20.2657 8.60937 19.9972 10.7971 19.3399 13.0002L23.1881 14.4012C23.5665 14.5389 23.9872 14.2726 23.997 13.8699C24.084 10.2815 22.4254 6.84087 19.5555 4.66887ZM21 19.1994H12.0397L14.475 12.5064L12.2197 11.6851L9.486 19.199H0.6C0.2685 19.199 0 19.4675 0 19.7994V20.9997C0 21.3312 0.2685 21.6001 0.6 21.6001H21C21.3315 21.6001 21.6 21.3312 21.6 20.9997V19.7994C21.6 19.4679 21.3315 19.1994 21 19.1994Z" fill="white"/>
</g>
<defs>
<clipPath id="clip0_150_8">
<rect width="24" height="24" fill="white"/>
</clipPath>
</defs>
</svg>
